<svg width="24" height="24" viewBox="0 0 24 24" fill="none" xmlns="http://www.w3.org/2000/svg">
<path fill-rule="evenodd" clip-rule="evenodd" d="M23.6856 8.06987C24.1048 7.65066 24.1048 7.02183 23.6856 6.60262L21.2751 4.19214L23.6856 1.78166C24.1048 1.36245 24.1048 0.733624 23.6856 0.31441C23.2664 -0.104803 22.6376 -0.104803 22.2183 0.31441L19.8079 2.72489L17.3974 0.31441C16.9782 -0.104803 16.3493 -0.104803 15.9301 0.31441C15.5109 0.733624 15.5109 1.36245 15.9301 1.78166L18.3406 4.19214L15.9301 6.60262C15.5109 7.02183 15.5109 7.65066 15.9301 8.06987C16.1397 8.27948 16.3493 8.38428 16.6638 8.38428C16.9782 8.38428 17.1878 8.27948 17.3974 8.06987L19.8079 5.65939L22.2183 8.06987C22.4279 8.27948 22.6376 8.38428 22.952 8.38428C23.2664 8.38428 23.476 8.27948 23.6856 8.06987ZM22.952 20.8559V17.7118C22.952 16.1397 21.7991 14.7773 20.2271 14.5677C19.2838 14.4629 18.3406 14.2533 17.5022 13.9389C16.3493 13.5197 14.9869 13.8341 14.1485 14.6725L13.4148 15.4061C11.4236 14.1485 9.85153 12.4716 8.59389 10.5852L9.32751 9.85153C10.1659 8.9083 10.4803 7.65066 10.0611 6.49782C9.74673 5.65939 9.53712 4.71616 9.43231 3.77293C9.22271 2.20087 7.86026 1.04803 6.28821 1.04803H3.1441H2.82969C1.99127 1.15284 1.25764 1.57205 0.733624 2.20087C0.209607 2.82969 0 3.66812 0 4.50655C0.31441 7.86026 1.46725 11.214 3.35371 14.0437C5.03057 16.6638 7.33624 18.9694 9.95633 20.6463C12.786 22.4279 16.1397 23.5808 19.4935 24H19.8079C20.6463 24 21.3799 23.5808 22.0087 23.0568C22.6376 22.5328 22.952 21.6943 22.952 20.8559Z" fill="white"/>
</svg>
