<svg width="55" height="55" viewBox="0 0 55 55" fill="none" xmlns="http://www.w3.org/2000/svg">
<circle cx="27.5" cy="27.5" r="27.5" fill="#D12B2B"/>
<path fill-rule="evenodd" clip-rule="evenodd" d="M38.6856 22.6026C39.1048 23.0218 39.1048 23.6507 38.6856 24.0699C38.476 24.2795 38.2664 24.3843 37.952 24.3843C37.6376 24.3843 37.4279 24.2795 37.2183 24.0699L34.8079 21.6594L32.3974 24.0699C32.1878 24.2795 31.9782 24.3843 31.6638 24.3843C31.3493 24.3843 31.1397 24.2795 30.9301 24.0699C30.5109 23.6507 30.5109 23.0218 30.9301 22.6026L33.3406 20.1921L30.9301 17.7817C30.5109 17.3624 30.5109 16.7336 30.9301 16.3144C31.3493 15.8952 31.9782 15.8952 32.3974 16.3144L34.8079 18.7249L37.2183 16.3144C37.6376 15.8952 38.2664 15.8952 38.6856 16.3144C39.1048 16.7336 39.1048 17.3624 38.6856 17.7817L36.2751 20.1921L38.6856 22.6026ZM37.952 33.7118V36.8559C37.952 37.6943 37.6376 38.5328 37.0087 39.0568C36.3799 39.5808 35.6463 40 34.8079 40H34.4935C31.1397 39.5808 27.786 38.4279 24.9563 36.6463C22.3362 34.9694 20.0306 32.6638 18.3537 30.0437C16.4672 27.214 15.3144 23.8603 15 20.5065C15 19.6681 15.2096 18.8297 15.7336 18.2009C16.2576 17.5721 16.9913 17.1528 17.8297 17.048H18.1441H21.2882C22.8603 17.048 24.2227 18.2009 24.4323 19.7729C24.5371 20.7162 24.7467 21.6594 25.0611 22.4978C25.4803 23.6507 25.1659 24.9083 24.3275 25.8515L23.5939 26.5852C24.8515 28.4716 26.4236 30.1485 28.4148 31.4061L29.1485 30.6725C29.9869 29.8341 31.3493 29.5197 32.5022 29.9389C33.3406 30.2533 34.2838 30.4629 35.2271 30.5677C36.7991 30.7773 37.952 32.1397 37.952 33.7118ZM34.9127 32.6638C35.4367 32.7686 35.8559 33.1878 35.8559 33.7118V36.8559C35.8559 37.1703 35.7511 37.3799 35.5415 37.5895C35.3319 37.7991 35.1223 37.9039 34.7031 37.9039C31.6638 37.5895 28.7293 36.5415 26.1092 34.8646C23.6987 33.3974 21.7074 31.3013 20.1354 28.8908C18.4585 26.2707 17.4105 23.3362 17.0961 20.2969C17.0961 19.9825 17.2009 19.7729 17.3057 19.5633C17.5153 19.3537 17.8297 19.1441 18.1441 19.1441H21.2882C21.8122 19.1441 22.3362 19.5633 22.3362 20.0873C22.5459 21.1354 22.7555 22.1834 23.1747 23.2314C23.2795 23.5459 23.1747 24.0699 22.9651 24.2795L21.6026 25.6419C21.2882 25.9563 21.1834 26.4803 21.2882 26.8996C22.8603 29.7293 25.1659 32.0349 27.9956 33.607C28.4148 33.8166 28.9389 33.7118 29.2533 33.3974L30.6157 32.0349C30.9301 31.7205 31.3493 31.7205 31.7686 31.8253C32.8166 32.2445 33.8646 32.559 34.9127 32.6638Z" fill="black"/>
<mask id="mask0_149_4636" style="mask-type:alpha" maskUnits="userSpaceOnUse" x="15" y="16" width="24" height="24">
<path fill-rule="evenodd" clip-rule="evenodd" d="M38.6856 22.6026C39.1048 23.0218 39.1048 23.6507 38.6856 24.0699C38.476 24.2795 38.2664 24.3843 37.952 24.3843C37.6376 24.3843 37.4279 24.2795 37.2183 24.0699L34.8079 21.6594L32.3974 24.0699C32.1878 24.2795 31.9782 24.3843 31.6638 24.3843C31.3493 24.3843 31.1397 24.2795 30.9301 24.0699C30.5109 23.6507 30.5109 23.0218 30.9301 22.6026L33.3406 20.1921L30.9301 17.7817C30.5109 17.3624 30.5109 16.7336 30.9301 16.3144C31.3493 15.8952 31.9782 15.8952 32.3974 16.3144L34.8079 18.7249L37.2183 16.3144C37.6376 15.8952 38.2664 15.8952 38.6856 16.3144C39.1048 16.7336 39.1048 17.3624 38.6856 17.7817L36.2751 20.1921L38.6856 22.6026ZM37.952 33.7118V36.8559C37.952 37.6943 37.6376 38.5328 37.0087 39.0568C36.3799 39.5808 35.6463 40 34.8079 40H34.4935C31.1397 39.5808 27.786 38.4279 24.9563 36.6463C22.3362 34.9694 20.0306 32.6638 18.3537 30.0437C16.4672 27.214 15.3144 23.8603 15 20.5065C15 19.6681 15.2096 18.8297 15.7336 18.2009C16.2576 17.5721 16.9913 17.1528 17.8297 17.048H18.1441H21.2882C22.8603 17.048 24.2227 18.2009 24.4323 19.7729C24.5371 20.7162 24.7467 21.6594 25.0611 22.4978C25.4803 23.6507 25.1659 24.9083 24.3275 25.8515L23.5939 26.5852C24.8515 28.4716 26.4236 30.1485 28.4148 31.4061L29.1485 30.6725C29.9869 29.8341 31.3493 29.5197 32.5022 29.9389C33.3406 30.2533 34.2838 30.4629 35.2271 30.5677C36.7991 30.7773 37.952 32.1397 37.952 33.7118ZM34.9127 32.6638C35.4367 32.7686 35.8559 33.1878 35.8559 33.7118V36.8559C35.8559 37.1703 35.7511 37.3799 35.5415 37.5895C35.3319 37.7991 35.1223 37.9039 34.7031 37.9039C31.6638 37.5895 28.7293 36.5415 26.1092 34.8646C23.6987 33.3974 21.7074 31.3013 20.1354 28.8908C18.4585 26.2707 17.4105 23.3362 17.0961 20.2969C17.0961 19.9825 17.2009 19.7729 17.3057 19.5633C17.5153 19.3537 17.8297 19.1441 18.1441 19.1441H21.2882C21.8122 19.1441 22.3362 19.5633 22.3362 20.0873C22.5459 21.1354 22.7555 22.1834 23.1747 23.2314C23.2795 23.5459 23.1747 24.0699 22.9651 24.2795L21.6026 25.6419C21.2882 25.9563 21.1834 26.4803 21.2882 26.8996C22.8603 29.7293 25.1659 32.0349 27.9956 33.607C28.4148 33.8166 28.9389 33.7118 29.2533 33.3974L30.6157 32.0349C30.9301 31.7205 31.3493 31.7205 31.7686 31.8253C32.8166 32.2445 33.8646 32.559 34.9127 32.6638Z" fill="white"/>
</mask>
<g mask="url(#mask0_149_4636)">
<rect x="15" y="16" width="24" height="24" fill="white"/>
</g>
</svg>
