<svg width="55" height="56" viewBox="0 0 55 56" fill="none" xmlns="http://www.w3.org/2000/svg">
<circle cx="27.5" cy="27.5" r="27.5" fill="white"/>
<circle cx="44" cy="45" r="9.5" fill="white" stroke="black" stroke-width="3"/>
<path fill-rule="evenodd" clip-rule="evenodd" d="M27 32C29.2 32 31 30.2 31 28V20C31 17.8 29.2 16 27 16C24.8 16 23 17.8 23 20V28C23 30.2 24.8 32 27 32ZM25 20C25 18.9 25.9 18 27 18C28.1 18 29 18.9 29 20V28C29 29.1 28.1 30 27 30C25.9 30 25 29.1 25 28V20ZM35 28V26C35 25.4 34.6 25 34 25C33.4 25 33 25.4 33 26V28C33 31.3 30.3 34 27 34C23.7 34 21 31.3 21 28V26C21 25.4 20.6 25 20 25C19.4 25 19 25.4 19 26V28C19 32 22.1 35.4 26 35.9V38H23C22.4 38 22 38.4 22 39C22 39.6 22.4 40 23 40H31C31.6 40 32 39.6 32 39C32 38.4 31.6 38 31 38H28V35.9C31.9 35.4 35 32.1 35 28Z" fill="black"/>
<mask id="mask0_149_4612" style="mask-type:alpha" maskUnits="userSpaceOnUse" x="19" y="16" width="16" height="24">
<path fill-rule="evenodd" clip-rule="evenodd" d="M27 32C29.2 32 31 30.2 31 28V20C31 17.8 29.2 16 27 16C24.8 16 23 17.8 23 20V28C23 30.2 24.8 32 27 32ZM25 20C25 18.9 25.9 18 27 18C28.1 18 29 18.9 29 20V28C29 29.1 28.1 30 27 30C25.9 30 25 29.1 25 28V20ZM35 28V26C35 25.4 34.6 25 34 25C33.4 25 33 25.4 33 26V28C33 31.3 30.3 34 27 34C23.7 34 21 31.3 21 28V26C21 25.4 20.6 25 20 25C19.4 25 19 25.4 19 26V28C19 32 22.1 35.4 26 35.9V38H23C22.4 38 22 38.4 22 39C22 39.6 22.4 40 23 40H31C31.6 40 32 39.6 32 39C32 38.4 31.6 38 31 38H28V35.9C31.9 35.4 35 32.1 35 28Z" fill="white"/>
</mask>
<g mask="url(#mask0_149_4612)">
<rect x="15" y="16" width="24" height="24" fill="#6E6B7B"/>
</g>
<path d="M49.025 43.275L44.525 47.775C44.375 47.925 44.225 48 44 48C43.775 48 43.625 47.925 43.475 47.775L38.975 43.275C38.675 42.975 38.675 42.525 38.975 42.225C39.275 41.925 39.725 41.925 40.025 42.225L44 46.2L47.975 42.225C48.275 41.925 48.725 41.925 49.025 42.225C49.325 42.525 49.325 42.975 49.025 43.275Z" fill="black"/>
<mask id="mask1_149_4612" style="mask-type:alpha" maskUnits="userSpaceOnUse" x="38" y="42" width="12" height="6">
<path d="M49.025 43.275L44.525 47.775C44.375 47.925 44.225 48 44 48C43.775 48 43.625 47.925 43.475 47.775L38.975 43.275C38.675 42.975 38.675 42.525 38.975 42.225C39.275 41.925 39.725 41.925 40.025 42.225L44 46.2L47.975 42.225C48.275 41.925 48.725 41.925 49.025 42.225C49.325 42.525 49.325 42.975 49.025 43.275Z" fill="white"/>
</mask>
<g mask="url(#mask1_149_4612)">
<rect x="35" y="36" width="18" height="18" fill="#6E6B7B"/>
</g>
</svg>
