<svg width="55" height="56" viewBox="0 0 55 56" fill="none" xmlns="http://www.w3.org/2000/svg">
<circle cx="27.5" cy="27.5001" r="27.5" fill="#605EBA"/>
<circle cx="44" cy="45.0001" r="9.5" fill="#605EBA" stroke="black" stroke-width="3"/>
<path d="M49.025 43.2751L44.525 47.7751C44.375 47.9251 44.225 48.0001 44 48.0001C43.775 48.0001 43.625 47.9251 43.475 47.7751L38.975 43.2751C38.675 42.9751 38.675 42.5251 38.975 42.2251C39.275 41.9251 39.725 41.9251 40.025 42.2251L44 46.2001L47.975 42.2251C48.275 41.9251 48.725 41.9251 49.025 42.2251C49.325 42.5251 49.325 42.9751 49.025 43.2751Z" fill="black"/>
<mask id="mask0_149_4617" style="mask-type:alpha" maskUnits="userSpaceOnUse" x="38" y="42" width="12" height="6">
<path d="M49.025 43.2751L44.525 47.7751C44.375 47.9251 44.225 48.0001 44 48.0001C43.775 48.0001 43.625 47.9251 43.475 47.7751L38.975 43.2751C38.675 42.9751 38.675 42.5251 38.975 42.2251C39.275 41.9251 39.725 41.9251 40.025 42.2251L44 46.2001L47.975 42.2251C48.275 41.9251 48.725 41.9251 49.025 42.2251C49.325 42.5251 49.325 42.9751 49.025 43.2751Z" fill="white"/>
</mask>
<g mask="url(#mask0_149_4617)">
<rect x="35" y="36.0001" width="18" height="18" fill="white"/>
</g>
<path fill-rule="evenodd" clip-rule="evenodd" d="M38.5 22.1001C38.2 21.9001 37.8 22.0001 37.5 22.2001L32 26.1001V23.0001C32 21.3001 30.7 20.0001 29 20.0001H18C16.3 20.0001 15 21.3001 15 23.0001V33.0001C15 34.7001 16.3 36.0001 18 36.0001H29C30.7 36.0001 32 34.7001 32 33.0001V29.9001L37.4 33.8001C37.6 33.9001 37.8 34.0001 38 34.0001C38.2 34.0001 38.3 34.0001 38.5 33.9001C38.8 33.7001 39 33.4001 39 33.0001V23.0001C39 22.6001 38.8 22.3001 38.5 22.1001ZM30 33.0001C30 33.6001 29.6 34.0001 29 34.0001H18C17.4 34.0001 17 33.6001 17 33.0001V23.0001C17 22.4001 17.4 22.0001 18 22.0001H29C29.6 22.0001 30 22.4001 30 23.0001V33.0001ZM32.7 28.0001L37 31.1001V24.9001L32.7 28.0001Z" fill="black"/>
<mask id="mask1_149_4617" style="mask-type:alpha" maskUnits="userSpaceOnUse" x="15" y="20" width="24" height="16">
<path fill-rule="evenodd" clip-rule="evenodd" d="M38.5 22.1001C38.2 21.9001 37.8 22.0001 37.5 22.2001L32 26.1001V23.0001C32 21.3001 30.7 20.0001 29 20.0001H18C16.3 20.0001 15 21.3001 15 23.0001V33.0001C15 34.7001 16.3 36.0001 18 36.0001H29C30.7 36.0001 32 34.7001 32 33.0001V29.9001L37.4 33.8001C37.6 33.9001 37.8 34.0001 38 34.0001C38.2 34.0001 38.3 34.0001 38.5 33.9001C38.8 33.7001 39 33.4001 39 33.0001V23.0001C39 22.6001 38.8 22.3001 38.5 22.1001ZM30 33.0001C30 33.6001 29.6 34.0001 29 34.0001H18C17.4 34.0001 17 33.6001 17 33.0001V23.0001C17 22.4001 17.4 22.0001 18 22.0001H29C29.6 22.0001 30 22.4001 30 23.0001V33.0001ZM32.7 28.0001L37 31.1001V24.9001L32.7 28.0001Z" fill="white"/>
</mask>
<g mask="url(#mask1_149_4617)">
<rect x="15" y="16.0001" width="24" height="24" fill="white"/>
</g>
</svg>
